<svg xmlns="http://www.w3.org/2000/svg" width="36" height="36" viewBox="0 0 36 36">
  <path fill="#25ABEE" fill-rule="evenodd" d="M29.6401568,22.6043437 C28.2001414,22.1225273 26.2664605,21.3842812 24.113361,20.6057109 C25.4070857,18.3578906 26.4391488,15.7974961 27.1179826,13.0162852 L20.0219532,13.0162852 L20.0219532,10.4604961 L28.7148408,10.4604961 L28.7148408,9.03353906 L20.0219532,9.03353906 L20.0219532,4.77256641 L16.4743065,4.77256641 C15.8514929,4.77256641 15.8514929,5.38720312 15.8514929,5.38720312 L15.8514929,9.03357422 L7.059746,9.03357422 L7.059746,10.4605313 L15.8514929,10.4605313 L15.8514929,13.0163203 L8.59269618,13.0163203 L8.59269618,14.4426094 L22.6713474,14.4426094 C22.1559819,16.2178594 21.4646329,17.8840547 20.6434697,19.3982344 C16.075574,17.8906641 11.2005835,16.6685977 8.13860946,17.4207656 C6.18056429,17.9038828 4.91916168,18.7657031 4.17705085,19.6665469 C0.77636102,23.8046133 3.21552146,30.0900234 10.398491,30.0900234 C14.6454445,30.0900234 18.7368173,27.7212656 21.9075015,23.8204687 C26.6362013,26.0940586 36,29.997457 36,29.997457 L36,30.2334258 C36,33.4184062 33.4211395,36 30.2352758,36 L5.76668738,36 C2.58015764,36 0,33.4177734 0,30.2334258 L0,5.76724219 C0,2.58159375 2.58019269,0 5.76665232,0 L30.2353108,0 C33.4211395,0 36,2.58159375 36,5.76724219 L36,24.4338047 C36,24.4338047 34.8242404,24.3406055 29.6401568,22.6043437 Z M8.74957397,19.5554883 L8.74957397,19.5554883 C12.0764348,19.2270234 15.1568486,20.4966562 18.7908744,22.2705703 C16.235712,25.602293 12.981979,27.6842109 9.7269489,27.6842109 C4.12632411,27.6842109 2.47011532,23.2718906 5.23814068,20.8595039 C6.16145851,20.0432461 7.84995433,19.6447148 8.74957397,19.5554883 Z"/>
</svg>
