<svg xmlns="http://www.w3.org/2000/svg" width="24" height="24" viewBox="0 0 24 24">
  <path fill="#666666" d="M9.93646282,16.8944771 C13.8076836,16.8147994 16.9312169,13.6187307 16.9312169,9.69431244 L16.9312169,8.16168756 C16.9312169,7.43622123 16.8248097,6.73579936 16.6268732,6.07542314 C16.605293,6.07844044 16.5832505,6.08 16.5608466,6.08 C16.5418959,6.08 14.8514656,6.77840754 14.2227805,7.00984932 C13.0385434,7.44580992 11.9515694,7.75065931 10.9140996,7.90002073 C9.64822014,8.08226559 8.52913417,8.01792973 7.58041883,7.65103176 C6.05608711,7.06152489 4.635512,7.24632677 3.37913464,7.91515407 C3.06261979,8.08364945 2.81472655,8.25051221 2.64550265,8.38304768 L2.64550265,9.69431244 C2.64550265,12.7670594 4.55443321,15.3905122 7.24179845,16.4248034 C8.44330636,16.7217052 9.34608434,16.8776696 9.93646282,16.8944771 L9.93646282,16.8944771 Z M7.01682674,17.6645253 C6.68714389,17.5280058 6.38277557,17.3623734 6.10400248,17.1673306 L3.95430012,17.0826442 C3.91670975,17.0811634 3.87909428,17.0804228 3.84147521,17.0804228 C2.24587251,17.0804228 0.952380952,18.3842622 0.952380952,19.9926298 L0.952380952,22.56 C0.952380952,22.8250967 1.16557869,23.04 1.42857143,23.04 L18.1481481,23.04 C18.4111409,23.04 18.6243386,22.8250967 18.6243386,22.56 L18.6243386,19.9926298 C18.6243386,19.9510443 18.6234508,19.9094635 18.6216759,19.8679165 C18.5533453,18.2684691 17.2116347,17.0276968 15.6248813,17.0965741 L13.9722761,17.1683097 C13.7063919,17.3055698 13.4347497,17.4284089 13.1574081,17.5368309 L11.186605,20.2096698 C10.7159608,20.847966 9.82109372,20.9808226 9.18786337,20.5064133 C9.0758848,20.4225201 8.97670238,20.3225442 8.89347506,20.2096698 L7.01682674,17.6645253 Z M14.7055642,16.1755897 L15.5839068,16.137463 C17.6961586,16.0457751 19.4822148,17.6974644 19.573175,19.8266142 C19.5755378,19.8819207 19.5767196,19.937272 19.5767196,19.9926298 L19.5767196,22.56 C19.5767196,23.35529 18.9371264,24 18.1481481,24 L1.42857143,24 C0.639593215,24 4.36952062e-13,23.35529 3.56963136e-13,22.56 L0,19.9926298 C-2.169693e-13,17.8540689 1.71988704,16.1204228 3.84147521,16.1204228 C3.89149528,16.1204228 3.94151059,16.1214075 3.9914925,16.1233766 L4.84370155,16.1569489 C2.92732599,14.6643047 1.69312169,12.3245412 1.69312169,9.69431244 L1.69312169,8.16168756 C1.69312169,3.65703134 5.32314757,0 9.78835979,0 C14.2591551,0 17.8835979,3.65434447 17.8835979,8.16168756 L17.8835979,9.69431244 C17.8835979,12.3344194 16.6367041,14.6833718 14.7055642,16.1755897 L14.7055642,16.1755897 Z M2.71002869,7.19094485 C2.78144632,7.14951485 2.8562516,7.10785452 2.93437662,7.06626498 C4.41637442,6.27732957 6.11553717,6.05628637 7.92156511,6.754734 C8.69892956,7.05536521 9.66104673,7.11067699 10.7794428,6.94966486 C11.7418143,6.81111513 12.768829,6.52308174 13.8960643,6.10810556 C14.1628778,6.00988183 15.6585128,5.39399657 16.2954705,5.18744006 C15.1725098,2.69408532 12.6812059,0.96 9.78835979,0.96 C6.17529085,0.96 3.18121232,3.67487409 2.71002869,7.19094485 L2.71002869,7.19094485 Z M13.5363935,11.232 C13.5363935,11.4970967 13.3231958,11.712 13.0602031,11.712 C12.7972103,11.712 12.5840126,11.4970967 12.5840126,11.232 C12.5840126,10.9305896 12.3455165,10.688 12.0534821,10.688 C11.7614476,10.688 11.5229515,10.9305896 11.5229515,11.232 C11.5229515,11.4970967 11.3097538,11.712 11.046761,11.712 C10.7837683,11.712 10.5705706,11.4970967 10.5705706,11.232 C10.5705706,10.4023313 11.2335232,9.728 12.0534821,9.728 C12.873441,9.728 13.5363935,10.4023313 13.5363935,11.232 Z M9.00614901,11.232 C9.00614901,11.4970967 8.79295127,11.712 8.52995853,11.712 C8.26696579,11.712 8.05376805,11.4970967 8.05376805,11.232 C8.05376805,10.9305896 7.81527194,10.688 7.52323752,10.688 C7.2312031,10.688 6.99270699,10.9305896 6.99270699,11.232 C6.99270699,11.4970967 6.77950925,11.712 6.51651652,11.712 C6.25352378,11.712 6.04032604,11.4970967 6.04032604,11.232 C6.04032604,10.4023313 6.70327862,9.728 7.52323752,9.728 C8.34319642,9.728 9.00614901,10.4023313 9.00614901,11.232 Z M9.65785171,19.6370071 C9.68559415,19.6746319 9.71865496,19.7079572 9.75598115,19.7359216 C9.96705793,19.894058 10.265347,19.8497725 10.4222284,19.6370071 L11.9102441,17.6189332 C11.1297671,17.7767459 10.5081462,17.856 10.04004,17.856 C9.5719339,17.856 8.95031295,17.7767459 8.16983602,17.6189332 L9.65785171,19.6370071 Z" transform="translate(2)"/>
</svg>
