<svg xmlns="http://www.w3.org/2000/svg" width="24" height="24" viewBox="0 0 24 24">
  <g fill="none" fill-rule="evenodd" transform="translate(2)">
    <rect width="16.111" height="16.823" x="2" y=".686" fill="#FEEBE8" rx="8.056"/>
    <path fill="#FA725A" fill-rule="nonzero" d="M3,8.21598081 L3,9.75544776 C3,13.7403937 6.23459767,16.9714286 10.2247075,16.9714286 C14.2093337,16.9714286 17.4494151,13.7375179 17.4494151,9.75544776 L17.4494151,8.21598081 C17.4494151,4.23103484 14.2148174,1 10.2247075,1 C6.24008139,1 3,4.23391069 3,8.21598081 Z M2,8.21598081 C2,3.68119875 5.68822293,0 10.2247075,0 C14.7668556,0 18.4494151,3.67850323 18.4494151,8.21598081 L18.4494151,9.75544776 C18.4494151,14.2902298 14.7611922,17.9714286 10.2247075,17.9714286 C5.68255948,17.9714286 2,14.2929253 2,9.75544776 L2,8.21598081 Z"/>
    <path fill="#FA725A" fill-rule="nonzero" d="M14.0413642 10.5285714C14.0413642 9.68522288 13.3613971 9 12.5206821 9 11.6799671 9 11 9.68522288 11 10.5285714 11 10.8047138 11.2238576 11.0285714 11.5 11.0285714 11.7761424 11.0285714 12 10.8047138 12 10.5285714 12 10.2357914 12.2339828 10 12.5206821 10 12.8073814 10 13.0413642 10.2357914 13.0413642 10.5285714 13.0413642 10.8047138 13.2652218 11.0285714 13.5413642 11.0285714 13.8175065 11.0285714 14.0413642 10.8047138 14.0413642 10.5285714zM9.04136416 10.5285714C9.04136416 9.68522288 8.36139708 9 7.52068208 9 6.67996708 9 6 9.68522288 6 10.5285714 6 10.8047138 6.22385763 11.0285714 6.5 11.0285714 6.77614237 11.0285714 7 10.8047138 7 10.5285714 7 10.2357914 7.23398278 10 7.52068208 10 7.80738137 10 8.04136416 10.2357914 8.04136416 10.5285714 8.04136416 10.8047138 8.26522178 11.0285714 8.54136416 11.0285714 8.81750653 11.0285714 9.04136416 10.8047138 9.04136416 10.5285714zM2.83932104 8.4386654C2.99135117 8.29819296 3.29834686 8.07138341 3.73439116 7.84140999 5.00421987 7.17169168 6.43965036 6.98668922 7.98019711 7.57694114 8.9450683 7.94662617 10.0823985 8.01140445 11.3684006 7.82797978 12.4215676 7.67776477 13.5246654 7.37126272 14.7263249 6.93299133 15.3690818 6.69856386 17.0757195 6 17.0911167 6 17.3672591 5.99999999 17.5911167 5.77614235 17.5911167 5.49999997 17.5911167 5.2238576 17.367259 4.99999999 17.0911167 5 16.8458595 5.00000001 14.7042462 5.87660886 14.3836813 5.99352585 13.2418131 6.40999008 12.2016059 6.69901759 11.227198 6.83799906 10.0958597 6.99936377 9.12312496 6.94396027 8.33797932 6.64313608 6.50198144 5.9396837 4.77440997 6.16233813 3.2678881 6.9568904 2.74792034 7.23112576 2.37244952 7.50852499 2.16068383 7.70419175 1.95786453 7.89159224 1.94536512 8.20792788 2.13276561 8.41074717 2.3201661 8.61356647 2.63650174 8.62606589 2.83932104 8.4386654z"/>
    <path fill="#FEEBE8" d="M4.00198568,16.6866665 L6.39600658,16.6866665 C7.26585363,17.3397608 8.44683015,17.666308 9.93893613,17.666308 C11.4310421,17.666308 12.7914629,17.3397608 14.0201986,16.6866665 L15.8758866,16.6866665 L15.8758866,16.6866665 C17.7695303,16.6866665 19.3046318,18.221768 19.3046318,20.1154117 L19.3046318,22.5441569 L19.3046318,22.5441569 C19.3046318,23.0964417 18.8569165,23.5441569 18.3046318,23.5441569 L1.57324048,23.5441569 L1.57324048,23.5441569 C1.02095573,23.5441569 0.573240482,23.0964417 0.573240482,22.5441569 L0.573240482,20.1154117 L0.573240482,20.1154117 C0.573240482,18.221768 2.108342,16.6866665 4.00198568,16.6866665 Z"/>
    <path fill="#FA725A" fill-rule="nonzero" d="M3.92857143,17 C2.31116609,17 1,18.3111661 1,19.9285714 L1,22.3571429 C1,22.6332852 1.22385763,22.8571429 1.5,22.8571429 L18.3826184,22.8571429 C18.6587608,22.8571429 18.8826184,22.6332852 18.8826184,22.3571429 L18.8826184,19.9285714 C18.8826184,18.3111661 17.5714523,17 15.954047,17 L14.1773578,17 C12.8947861,17.6532092 11.4805834,17.9795918 9.94130922,17.9795918 C8.41195453,17.9795918 7.16428268,17.6569787 6.2093919,17 L3.92857143,17 Z M6.36977597,16 C6.47738652,16 6.5821257,16.0347177 6.66843055,16.0989945 C7.4506147,16.6815373 8.53730389,16.9795918 9.94130922,16.9795918 C11.3656593,16.9795918 12.6569506,16.6721361 13.8223305,16.0577083 C13.8942162,16.0198078 13.9742566,16 14.0555216,16 L15.954047,16 C18.1237371,16 19.8826184,17.7588813 19.8826184,19.9285714 L19.8826184,22.3571429 C19.8826184,23.18557 19.2110456,23.8571429 18.3826184,23.8571429 L1.5,23.8571429 C0.671572875,23.8571429 1.56430424e-13,23.18557 1.26121336e-13,22.3571429 L0,19.9285714 C-8.02136135e-14,17.7588813 1.75888134,16 3.92857143,16 L6.36977597,16 Z"/>
    <path fill="#FEEBE8" stroke="#FA725A" d="M9.25983656,20.0364053 L7,17 C8.38227581,17.3428571 9.40295789,17.5142857 10.0620462,17.5142857 C10.7211346,17.5142857 11.7418167,17.3428571 13.1240925,17 L10.8642559,20.0364053 L10.8642559,20.0364053 C10.5345185,20.4794534 9.90805198,20.5713099 9.46500381,20.2415725 C9.38700409,20.1835214 9.31788765,20.114405 9.25983656,20.0364053 Z" stroke-linecap="round" stroke-linejoin="round"/>
  </g>
</svg>
