<svg xmlns="http://www.w3.org/2000/svg" width="24" height="24" viewBox="0 0 24 24" xmlns:xlink="http://www.w3.org/1999/xlink">
  <defs>
    <polygon id="a" points="0 0 24 0 24 24 0 24"/>
  </defs>
  <g fill="none" fill-rule="evenodd">
    <mask id="b" fill="white">
      <use xlink:href="#a"/>
    </mask>
    <path fill="#666666" d="M2.0703125,15 L0.703125,9.2734375 L1.88671875,9.2734375 L2.75,13.2070312 L3.796875,9.2734375 L5.171875,9.2734375 L6.17578125,13.2734375 L7.0546875,9.2734375 L8.21875,9.2734375 L6.828125,15 L5.6015625,15 L4.4609375,10.71875 L3.32421875,15 L2.0703125,15 Z M9.07421875,12.171875 C9.07421875,11.5885387 9.16145746,11.0989603 9.3359375,10.703125 C9.46614648,10.4114569 9.64387908,10.1497407 9.86914062,9.91796875 C10.0944022,9.68619676 10.3411445,9.51432348 10.609375,9.40234375 C10.9661476,9.25130133 11.3776018,9.17578125 11.84375,9.17578125 C12.6875042,9.17578125 13.3626277,9.43749738 13.8691406,9.9609375 C14.3756536,10.4843776 14.6289062,11.2122349 14.6289062,12.1445312 C14.6289062,13.069015 14.3776067,13.7923151 13.875,14.3144531 C13.3723933,14.8365912 12.700525,15.0976562 11.859375,15.0976562 C11.0078082,15.0976562 10.3307317,14.8378932 9.828125,14.3183594 C9.32551832,13.7988255 9.07421875,13.0833379 9.07421875,12.171875 Z M10.265625,12.1328125 C10.265625,12.7812532 10.4153631,13.2727848 10.7148438,13.6074219 C11.0143244,13.942059 11.3945289,14.109375 11.8554688,14.109375 C12.3164086,14.109375 12.69466,13.943361 12.9902344,13.6113281 C13.2858088,13.2792952 13.4335938,12.7812533 13.4335938,12.1171875 C13.4335938,11.4609342 13.289715,10.9713558 13.0019531,10.6484375 C12.7141913,10.3255192 12.3320336,10.1640625 11.8554688,10.1640625 C11.3789039,10.1640625 10.9947931,10.3274723 10.703125,10.6542969 C10.4114569,10.9811214 10.265625,11.473955 10.265625,12.1328125 Z M16.84375,15 L15.4765625,9.2734375 L16.6601563,9.2734375 L17.5234375,13.2070312 L18.5703125,9.2734375 L19.9453125,9.2734375 L20.9492188,13.2734375 L21.828125,9.2734375 L22.9921875,9.2734375 L21.6015625,15 L20.375,15 L19.234375,10.71875 L18.0976563,15 L16.84375,15 Z" mask="url(#b)"/>
    <polyline stroke="#666666" points=".5 7.147 .5 4.685 3.154 4.909 4.601 1.574 7.579 3.56 10.321 .5 12.99 3.56 15.627 1.135 17.449 3.786 20.251 3.56 20.794 4.909 23.598 4.909 23.598 7.53" stroke-linejoin="round" mask="url(#b)"/>
    <polyline stroke="#666666" points="22.668 16.5 22.668 20.412 20.087 19.11 18.793 22.175 16.04 20.79 13.851 23.471 11.584 20.79 8.465 22.992 6.953 20.79 3.438 21.97 3.438 19.11 .5 19.699 .5 16.5" stroke-linejoin="round" mask="url(#b)"/>
  </g>
</svg>
