<svg xmlns="http://www.w3.org/2000/svg" width="24" height="24" viewBox="0 0 24 24">
  <g fill="none" fill-rule="evenodd">
    <rect width="24" height="15" y="5" fill="#FEEBE8"/>
    <path fill="#FEEBE8" stroke="#FA725A" d="M23.6533672,16.5 L23.6533672,20.4123538 L20.9604866,19.1100975 L19.6099353,22.1749088 L16.7371335,20.7899712 L14.4536091,23.4706118 L12.0875532,20.7899712 L8.83258025,22.9923628 L7.25502926,20.7899712 L3.58757422,21.9701892 L3.58757422,19.1100975 L0.52173913,19.6994679 L0.52173913,16.5 M0.52173913,7.14667596 L0.52173913,4.68506222 L3.15898938,4.90949193 L4.59748952,1.57439671 L7.55773801,3.56046089 L10.2823806,0.5 L12.9353542,3.56046089 L15.5557841,1.13539362 L17.3662808,3.78623963 L20.1517445,3.56046089 L20.6913345,4.90949193 L23.4782609,4.90949193 L23.4782609,7.52992342" stroke-linejoin="round"/>
    <path fill="#FA725A" d="M2.16032609,15 L0.733695652,9.2734375 L1.96875,9.2734375 L2.86956522,13.2070312 L3.96195652,9.2734375 L5.39673913,9.2734375 L6.44429348,13.2734375 L7.36141304,9.2734375 L8.57608696,9.2734375 L7.125,15 L5.8451087,15 L4.6548913,10.71875 L3.46875,15 L2.16032609,15 Z M9.46875,12.171875 C9.46875,11.5885387 9.5597817,11.0989603 9.74184783,10.703125 C9.87771807,10.4114569 10.0631782,10.1497407 10.2982337,9.91796875 C10.5332892,9.68619676 10.7907595,9.51432348 11.0706522,9.40234375 C11.4429366,9.25130133 11.8722802,9.17578125 12.3586957,9.17578125 C13.2391348,9.17578125 13.9436115,9.43749738 14.4721467,9.9609375 C15.000682,10.4843776 15.2649457,11.2122349 15.2649457,12.1445312 C15.2649457,13.069015 15.00272,13.7923151 14.4782609,14.3144531 C13.9538017,14.8365912 13.2527218,15.0976562 12.375,15.0976562 C11.4864086,15.0976562 10.7798939,14.8378932 10.2554348,14.3183594 C9.73097564,13.7988255 9.46875,13.0833379 9.46875,12.171875 Z M10.7119565,12.1328125 C10.7119565,12.7812532 10.868205,13.2727848 11.1807065,13.6074219 C11.4932081,13.942059 11.8899432,14.109375 12.3709239,14.109375 C12.8519046,14.109375 13.2466017,13.943361 13.5550272,13.6113281 C13.8634526,13.2792952 14.017663,12.7812533 14.017663,12.1171875 C14.017663,11.4609342 13.8675287,10.9713558 13.5672554,10.6484375 C13.2669822,10.3255192 12.868209,10.1640625 12.3709239,10.1640625 C11.8736388,10.1640625 11.4728276,10.3274723 11.1684783,10.6542969 C10.8641289,10.9811214 10.7119565,11.473955 10.7119565,12.1328125 Z M17.576087,15 L16.1494565,9.2734375 L17.3845109,9.2734375 L18.2853261,13.2070312 L19.3777174,9.2734375 L20.8125,9.2734375 L21.8600543,13.2734375 L22.7771739,9.2734375 L23.9918478,9.2734375 L22.5407609,15 L21.2608696,15 L20.0706522,10.71875 L18.8845109,15 L17.576087,15 Z"/>
  </g>
</svg>
