<svg xmlns="http://www.w3.org/2000/svg" width="24" height="24" viewBox="0 0 24 24" xmlns:xlink="http://www.w3.org/1999/xlink">
  <defs>
    <rect id="a" width="24" height="24"/>
    <path id="c" d="M22.0089635,12.2605573 L22.0089635,19.2710213 C22.0089635,20.3711819 21.1109066,21.2630383 20.018513,21.2630383 L4.00287568,21.2630383 C2.90358018,21.2630383 2.01242511,20.3628621 2.01242511,19.2710213 L2.01242511,12.2605551 C0.0115461262,12.2579175 -0.809187361,9.79118985 1.01242511,8.26303828 C2.83501218,6.73406912 10.4678384,0.525839788 10.4678384,0.525839788 C11.3222849,-0.169659777 12.7082828,-0.177714918 13.5726569,0.516448564 C13.5726569,0.516448564 21.3398074,6.72908744 23.0124251,8.26303828 C24.6850428,9.79698912 24.0124251,12.2605573 22.0118289,12.2605573 L22.0089635,12.2605573 L22.0089635,12.2605573 Z"/>
  </defs>
  <g fill="none" fill-rule="evenodd">
    <mask id="b" fill="white">
      <use xlink:href="#a"/>
    </mask>
    <g transform="translate(0 1)" mask="url(#b)">
      <mask id="d" fill="white">
        <use xlink:href="#c"/>
      </mask>
      <g>
        <use fill="#FEEBE8" xlink:href="#c"/>
        <path stroke="#FA725A" d="M21.5089635,19.2710213 L21.5089635,11.7605573 L22.0118289,11.7605573 C23.5325672,11.7605573 24.0226856,9.86797328 22.6744768,8.63153655 C22.0434441,8.05281896 20.4776603,6.74856305 18.2659346,4.94705575 C18.2001505,4.89347874 18.2001505,4.89347874 18.1343508,4.83991173 C17.0682537,3.9721013 15.9258352,3.04862908 14.783393,2.12944735 C14.3835199,1.80771899 14.0122152,1.50951481 13.6790086,1.2423226 C13.4791271,1.08204128 13.3363319,0.967690319 13.2595773,0.906296148 C12.5807994,0.361181694 11.456801,0.365548313 10.7833354,0.913733628 C10.706491,0.976235737 10.706491,0.976235737 10.3605173,1.25776979 C9.89920415,1.63324928 9.64932023,1.83669436 9.24566422,2.16547761 C8.0923746,3.10484753 6.9390909,4.04527761 5.86273233,4.924471 L5.83117601,4.95024737 C3.61961387,6.75676581 2.0305546,8.06156861 1.33377414,8.64609807 C-0.0971780014,9.8465245 0.441348662,11.7584836 2.01308423,11.7605556 L2.51242511,11.7612138 L2.51242511,19.2710213 C2.51242511,20.0900028 3.18299678,20.7630383 4.00287568,20.7630383 L20.018513,20.7630383 C20.8373275,20.7630383 21.5089635,20.0924798 21.5089635,19.2710213 Z"/>
      </g>
      <path stroke="#FA725A" d="M10,8.0048815 L10,8.9951185 C10,9.82853085 10.67233,10.5 11.5048815,10.5 L12.4951185,10.5 C13.3285308,10.5 14,9.82767003 14,8.9951185 L14,8.0048815 C14,7.17146915 13.32767,6.5 12.4951185,6.5 L11.5048815,6.5 C10.6714692,6.5 10,7.17232997 10,8.0048815 Z M10,21.5 L14,21.5 L14,15.5070018 C14,14.3977761 13.1045428,13.5 12,13.5 C10.889742,13.5 10,14.3946132 10,15.5070018 L10,21.5 Z" mask="url(#d)"/>
    </g>
  </g>
</svg>
