<svg xmlns="http://www.w3.org/2000/svg" width="24" height="25" viewBox="0 0 24 25" xmlns:xlink="http://www.w3.org/1999/xlink">
  <defs>
    <rect id="a" width="94" height="49"/>
    <path id="c" d="M0.5,3.0952381 C0.5,1.93551918 1.43011367,1 2.59090909,1 L21.4090909,1 C22.5680082,1 23.5,1.9453125 23.5,3.0952381 L23.5,20.9047619 C23.5,22.0644808 22.5698863,23 21.4090909,23 L2.59090909,23 C1.43199184,23 0.5,22.0546875 0.5,20.9047619 L0.5,3.0952381 Z M1.54545455,3.0952381 L1.54545455,20.9047619 C1.54545455,21.4806415 2.01389878,21.952381 2.59090909,21.952381 L21.4090909,21.952381 C21.9913024,21.952381 22.4545455,21.4870947 22.4545455,20.9047619 L22.4545455,3.0952381 C22.4545455,2.51935849 21.9861012,2.04761905 21.4090909,2.04761905 L2.59090909,2.04761905 C2.00869758,2.04761905 1.54545455,2.51290531 1.54545455,3.0952381 Z"/>
    <path id="d" d="M1.54545455,3.0952381 L1.54545455,20.9047619 C1.54545455,21.4806415 2.01389878,21.952381 2.59090909,21.952381 L21.4090909,21.952381 C21.9913024,21.952381 22.4545455,21.4870947 22.4545455,20.9047619 L22.4545455,3.0952381 C22.4545455,2.51935849 21.9861012,2.04761905 21.4090909,2.04761905 L2.59090909,2.04761905 C2.00869758,2.04761905 1.54545455,2.51290531 1.54545455,3.0952381 Z"/>
  </defs>
  <g fill="none" fill-rule="evenodd" transform="translate(-9 -4)">
    <mask id="b" fill="white">
      <use xlink:href="#a"/>
    </mask>
    <g transform="translate(9 4.5)" mask="url(#b)">
      <use fill="#FA725A" fill-rule="nonzero" xlink:href="#c"/>
      <mask id="e" fill="white">
        <use xlink:href="#d"/>
      </mask>
      <use fill="#FEEBE8" xlink:href="#d"/>
      <path fill="#FA725A" d="M17.2272727 12.5238095C17.2272727 12.5238095 17.807554 12.5238095 17.807554 12 17.807554 11.4761905 17.2272727 11.4761905 17.2272727 11.4761905L4.57474289 11.4761905C4.57474289 11.4761905 4 11.4761905 4 12 4 12.5238095 4.57474289 12.5238095 4.57474289 12.5238095L17.2272727 12.5238095zM16.0985652 16.8192157C16.0985652 16.8192157 16.7206254 16.8192157 16.7206254 16.2429412 16.7206254 15.6666667 16.0985652 15.6666667 16.0985652 15.6666667L4.60323719 15.6666667C4.60323719 15.6666667 4 15.6666667 4 16.2429412 4 16.8192157 4.60323719 16.8192157 4.60323719 16.8192157L16.0985652 16.8192157zM19.2099932 8.33333333C19.2099932 8.33333333 19.7175896 8.33333333 19.7175896 7.80952381 19.7175896 7.28571429 19.2099932 7.28571429 19.2099932 7.28571429L4.57362956 7.28571429C4.57362956 7.28571429 4 7.28571429 4 7.80952381 4 8.33333333 4.57362956 8.33333333 4.57362956 8.33333333L19.2099932 8.33333333z" mask="url(#e)"/>
    </g>
  </g>
</svg>
