<svg xmlns="http://www.w3.org/2000/svg" width="24" height="24" viewBox="0 0 24 24">
  <path fill="#666666" d="M1.04545455,2.0952381 L1.04545455,19.9047619 C1.04545455,20.4806415 1.51389878,20.952381 2.09090909,20.952381 L20.9090909,20.952381 C21.4913024,20.952381 21.9545455,20.4870947 21.9545455,19.9047619 L21.9545455,2.0952381 C21.9545455,1.51935849 21.4861012,1.04761905 20.9090909,1.04761905 L2.09090909,1.04761905 C1.50869758,1.04761905 1.04545455,1.51290531 1.04545455,2.0952381 Z M0,2.0952381 C0,0.935519178 0.930113673,0 2.09090909,0 L20.9090909,0 C22.0680082,0 23,0.9453125 23,2.0952381 L23,19.9047619 C23,21.0644808 22.0698863,22 20.9090909,22 L2.09090909,22 C0.931991843,22 0,21.0546875 0,19.9047619 L0,2.0952381 Z M4.18181818,11.5238095 L16.7272727,11.5238095 C16.4955,11.5238095 16.7272727,11.289292 16.7272727,11.5238095 C16.7272727,10.710708 16.4955,10.4761905 16.7272727,10.4761905 L4.18181818,10.4761905 C4.41359096,10.4761905 4.18181818,10.710708 4.18181818,11.5238095 C4.18181818,11.289292 4.41359096,11.5238095 4.18181818,11.5238095 Z M4.18181818,15.7142857 L15.6818182,15.7142857 C15.4502487,15.7142857 15.6818182,15.4797682 15.6818182,15.7142857 C15.6818182,14.9011842 15.4502487,14.6666667 15.6818182,14.6666667 L4.18181818,14.6666667 C4.41338765,14.6666667 4.18181818,14.9011842 4.18181818,15.7142857 C4.18181818,15.4797682 4.41338765,15.7142857 4.18181818,15.7142857 Z M4.18181818,7.33333333 L18.8181818,7.33333333 C18.5860888,7.33333333 18.8181818,7.09881582 18.8181818,7.33333333 C18.8181818,6.5202318 18.5860888,6.28571429 18.8181818,6.28571429 L4.18181818,6.28571429 C4.41391117,6.28571429 4.18181818,6.5202318 4.18181818,7.33333333 C4.18181818,7.09881582 4.41391117,7.33333333 4.18181818,7.33333333 Z" transform="translate(.5 1)"/>
</svg>
