<svg xmlns="http://www.w3.org/2000/svg" width="24" height="24" viewBox="0 0 24 24">
  <g fill="#666666" fill-rule="evenodd" transform="translate(0 1)">
    <path fill-rule="nonzero" d="M21.0089635,19.6395021 L21.0089635,11.6290381 L22.0118289,11.6290381 C23.0353929,11.6290381 23.3743214,10.3202713 22.3365286,9.36851568 C21.7158193,8.79926577 20.1527313,7.49725536 17.9501655,5.70320899 C17.8844426,5.64968182 17.8844426,5.64968182 17.8187026,5.59616345 C16.753427,4.72902168 15.611717,3.80612222 14.4699597,2.88749149 C14.0703079,2.56594124 13.6992148,2.26790698 13.3662138,2.00087957 C13.166498,1.84073113 13.0237984,1.72645677 12.9464977,1.66462459 C12.4516612,1.26723025 11.5896688,1.27057901 11.0988325,1.67010833 C11.0220406,1.73256765 11.0220406,1.73256765 10.6761297,2.01405056 C10.2148857,2.38947386 9.96503312,2.59289338 9.56143048,2.92163316 C8.40830659,3.8608681 7.25519453,4.80115822 6.17903571,5.68018845 C3.93790244,7.51086165 2.34953093,8.81509971 1.65512318,9.39763871 C0.563892726,10.3130725 0.934149337,11.6276137 2.01374336,11.6290369 L3.01242511,11.6303534 L3.01242511,19.6395021 C3.01242511,20.182751 3.45955047,20.6315191 4.00287568,20.6315191 L20.018513,20.6315191 C20.5613647,20.6315191 21.0089635,20.1846384 21.0089635,19.6395021 Z M22.0089635,19.6395021 C22.0089635,20.7396627 21.1109066,21.6315191 20.018513,21.6315191 L4.00287568,21.6315191 C2.90358018,21.6315191 2.01242511,20.731343 2.01242511,19.6395021 L2.01242511,12.629036 C0.0115461262,12.6263983 -0.809187361,10.1596707 1.01242511,8.63151914 C2.83501218,7.10254998 10.4678384,0.894320647 10.4678384,0.894320647 C11.3222849,0.198821082 12.7082828,0.190765942 13.5726569,0.884929423 C13.5726569,0.884929423 21.3398074,7.0975683 23.0124251,8.63151914 C24.6850428,10.16547 24.0124251,12.6290381 22.0118289,12.6290381 L22.0089635,19.6395021 Z"/>
    <path fill-rule="nonzero" d="M10.5,9.0048815 L10.5,9.9951185 C10.5,10.552245 10.9483291,11 11.5048815,11 L12.4951185,11 C13.052245,11 13.5,10.5516709 13.5,9.9951185 L13.5,9.0048815 C13.5,8.44775503 13.0516709,8 12.4951185,8 L11.5048815,8 C10.947755,8 10.5,8.44832905 10.5,9.0048815 Z M9.5,9.0048815 C9.5,7.89761602 10.3938998,7 11.5048815,7 L12.4951185,7 C13.602384,7 14.5,7.8938998 14.5,9.0048815 L14.5,9.9951185 C14.5,11.102384 13.6061002,12 12.4951185,12 L11.5048815,12 C10.397616,12 9.5,11.1061002 9.5,9.9951185 L9.5,9.0048815 Z M13.5,21.5386542 L13.5,16.4076805 C13.5,15.6292328 12.8281105,15 12,15 C11.1664973,15 10.5,15.6259793 10.5,16.4076805 L10.5,21.5386542 L13.5,21.5386542 Z M9.5,16.0999355 C9.5,14.9401731 10.6096621,14 12,14 C13.3807119,14 14.5,14.9395332 14.5,16.0999355 L14.5,21.5386542 L9.5,21.5386542 L9.5,16.0999355 Z"/>
  </g>
</svg>
