<svg xmlns="http://www.w3.org/2000/svg" width="36" height="36" viewBox="0 0 36 36" xmlns:xlink="http://www.w3.org/1999/xlink">
  <defs>
    <rect id="a" width="36" height="36"/>
  </defs>
  <g fill="none" fill-rule="evenodd">
    <mask id="b" fill="white">
      <use xlink:href="#a"/>
    </mask>
    <g fill-rule="nonzero" transform="translate(0 6.83)" mask="url(#b)">
      <path fill="#E03333" d="M7.07757884,0.0178999688 L16.0679177,0.0178999688 C17.3135671,0.0178999688 18.1078942,1.03819819 17.8009951,2.27329604 L13.6127248,20.0658651 C13.3238786,21.3188629 12.0601763,22.3212611 10.8145269,22.3212611 L1.82418805,22.3212611 C0.578538688,22.3212611 -0.215788443,21.3009629 0.0911106758,20.0658651 L4.279381,2.27329604 C4.56822723,1.03819819 5.81387659,0.0178999688 7.07757884,0.0178999688"/>
      <path fill="#004889" d="M15.3096964,0.0178999688 L25.6359491,0.0178999688 C26.8815984,0.0178999688 26.3219589,1.03819819 26.0331126,2.27329604 L21.8448423,20.0658651 C21.5559961,21.3188629 21.6462605,22.3212611 20.3825583,22.3212611 L10.0563056,22.3212611 C8.79260333,22.3212611 8.01632909,21.3009629 8.32322821,20.0658651 L12.5114985,2.27329604 C12.8003448,1.03819819 14.0459941,0.0178999688 15.3096964,0.0178999688"/>
      <path fill="#008089" d="M25.2207326,0.0178999688 L34.1930186,0.0178999688 C35.4567209,0.0178999688 36.2329951,1.03819819 35.926096,2.27329604 L31.7378257,20.0658651 C31.4489794,21.3188629 30.1852772,22.3212611 28.9396278,22.3212611 L19.9673418,22.3212611 C18.7036396,22.3212611 17.9273653,21.3009629 18.2342644,20.0658651 L22.4225348,2.27329604 C22.711381,1.03819819 23.9750833,0.0178999688 25.2207326,0.0178999688"/>
      <path fill="#FFFFFF" d="M23.7223428,16.1636718 L24.5708286,16.1636718 L24.823569,15.3581733 L23.9750833,15.3581733 L23.7223428,16.1636718 Z M24.4083526,13.9261757 L24.1195064,14.8748741 C24.1195064,14.8748741 24.4444584,14.7137744 24.6069344,14.6600745 C24.7874633,14.6242745 25.0402037,14.5884746 25.0402037,14.5884746 L25.2387855,13.9261757 L24.4083526,13.9261757 L24.4083526,13.9261757 Z M24.823569,12.5657781 L24.5347228,13.4786765 C24.5347228,13.4786765 24.8416219,13.3354768 25.0221508,13.2996768 C25.2026797,13.2459769 25.4554202,13.2459769 25.4554202,13.2459769 L25.654002,12.5836781 L24.823569,12.5657781 L24.823569,12.5657781 Z M26.7010695,12.5657781 L25.5998433,16.1636718 L25.8886895,16.1636718 L25.654002,16.8975706 L25.3651557,16.8975706 L25.2929442,17.1302702 L24.2458766,17.1302702 L24.3180881,16.8975706 L22.2059001,16.8975706 L22.4225348,16.2173718 L22.6391694,16.2173718 L23.7584486,12.5657781 L23.9750833,11.8318794 L25.0402037,11.8318794 L24.9318864,12.2077787 C24.9318864,12.2077787 25.2207326,12.0108791 25.491526,11.9392792 C25.7623193,11.8676793 27.2968149,11.8497794 27.2968149,11.8497794 L27.0621273,12.5836781 L26.7010695,12.5836781 L26.7010695,12.5657781 L26.7010695,12.5657781 Z"/>
      <path fill="#FFFFFF" d="M27.1704447,11.8318794 L28.3077767,11.8318794 L28.3258296,12.2435787 C28.3258296,12.3151786 28.3799882,12.3509785 28.5063585,12.3509785 L28.741046,12.3509785 L28.5244114,13.0490773 L27.9106131,13.0490773 C27.3870793,13.0848772 27.1704447,12.8521776 27.1884976,12.6015781 L27.1704447,11.8318794 L27.1704447,11.8318794 Z M27.3148678,15.1075737 L26.2316944,15.1075737 L26.4122233,14.4989747 L27.6398198,14.4989747 L27.8203487,13.9440757 L26.5927522,13.9440757 L26.8093869,13.2459769 L30.2033301,13.2459769 L29.9866954,13.9440757 L28.8493634,13.9440757 L28.6688345,14.4989747 L29.8061665,14.4989747 L29.6256376,15.1075737 L28.3980411,15.1075737 L28.1814065,15.3581733 L28.6868874,15.3581733 L28.8132576,16.1278719 C28.8313105,16.1994718 28.8313105,16.2531717 28.8493634,16.2889716 C28.8674163,16.3247716 29.0298923,16.3247716 29.1201567,16.3247716 L29.2645798,16.3247716 L29.0298923,17.1123702 L28.6507816,17.1123702 C28.5966229,17.1123702 28.5063585,17.1123702 28.3799882,17.0944702 C28.2716709,17.0765703 28.1814065,17.0228704 28.1091949,16.9870704 C28.0369833,16.9512705 27.928666,16.8617706 27.9106131,16.7185709 L27.7842429,15.9488722 L27.2246033,16.7185709 C27.0440744,16.9512705 26.8093869,17.1481701 26.3941704,17.1481701 L25.5998433,17.1481701 L25.7984251,16.4679713 L26.1053242,16.4679713 C26.1955886,16.4679713 26.2678002,16.4321714 26.3219589,16.3963714 C26.3761175,16.3784715 26.4302762,16.3426715 26.4844349,16.2531717 L27.3148678,15.1075737 L27.3148678,15.1075737 Z M15.4721724,13.4249766 L18.3425818,13.4249766 L18.1259471,14.1051754 L16.9886151,14.1051754 L16.8080862,14.6779744 L17.981524,14.6779744 L17.7648893,15.3760732 L16.5914515,15.3760732 L16.3026053,16.3068716 C16.2664995,16.4142714 16.5733986,16.4321714 16.6997689,16.4321714 L17.2774613,16.3605715 L17.0427738,17.1302702 L15.7249128,17.1302702 C15.6165955,17.1302702 15.5443839,17.1123702 15.4180137,17.0944702 C15.3096964,17.0586703 15.2555377,17.0228704 15.201379,16.9333705 C15.1472204,16.8617706 15.0750088,16.7901708 15.1291675,16.629071 L15.5082782,15.3760732 L14.8583741,15.3760732 L15.0750088,14.6600745 L15.7249128,14.6600745 L15.9054417,14.0872755 L15.2555377,14.0872755 L15.4721724,13.4249766 Z M17.4038315,12.2077787 L18.5772693,12.2077787 L18.3606347,12.9237775 L16.7539275,12.9237775 L16.5733986,13.0669772 C16.5011871,13.1385771 16.4650813,13.1027772 16.3748168,13.1564771 C16.2845524,13.210177 16.0859706,13.2996768 15.8512831,13.2996768 L15.3458022,13.2996768 L15.5624368,12.619478 L15.7249128,12.619478 C15.8512831,12.619478 15.9415475,12.6015781 15.9957062,12.5836781 C16.0498648,12.5478781 16.1040235,12.4762783 16.1762351,12.3688785 L16.4650813,11.8318794 L17.6385191,11.8318794 L17.4038315,12.2077787 L17.4038315,12.2077787 Z M19.6604427,13.3712767 C19.6604427,13.3712767 19.9853947,13.0848772 20.5269814,12.9953774 C20.6533516,12.9774774 21.4296259,12.9774774 21.4296259,12.9774774 L21.5559961,12.5836781 L19.8951303,12.5836781 L19.6604427,13.3712767 L19.6604427,13.3712767 Z M21.2129912,13.6755762 L19.5701783,13.6755762 L19.4618609,13.9977756 L20.8880392,13.9977756 C21.0505152,13.9798757 21.086621,13.9977756 21.1046738,13.9977756 L21.2129912,13.6755762 Z M19.0827502,11.8318794 L20.0756592,11.8318794 L19.931236,12.3330785 C19.931236,12.3330785 20.2561881,12.082479 20.4728227,11.9929791 C20.6894574,11.9034793 21.1949383,11.8318794 21.1949383,11.8318794 L22.8196983,11.8318794 L22.2781117,13.6576762 C22.1878472,13.9619757 22.0795299,14.1767753 22.0073183,14.2662752 C21.9531596,14.355775 21.8809481,14.4452748 21.736525,14.5168747 C21.5921019,14.5884746 21.4837845,14.6242745 21.3574143,14.6421745 C21.249097,14.6421745 21.086621,14.6600745 20.8519334,14.6600745 L19.281332,14.6600745 L18.8480627,16.092072 C18.8119569,16.2352717 18.793904,16.3068716 18.8119569,16.3426715 C18.8300098,16.3784715 18.8841685,16.4142714 18.95638,16.4142714 L19.6423898,16.3426715 L19.4077023,17.1302702 L18.631428,17.1302702 C18.3786876,17.1302702 18.2162116,17.1302702 18.0898413,17.1123702 C17.9634711,17.1123702 17.8551538,17.1123702 17.7648893,17.0407703 C17.6926778,16.9691704 17.5843604,16.8975706 17.5843604,16.8080707 C17.5843604,16.7364708 17.6204662,16.5932711 17.6746249,16.4142714 L19.0827502,11.8318794 L19.0827502,11.8318794 Z"/>
      <path fill="#FFFFFF" d="M21.9892654,14.7674743 L21.899001,15.1970735 C21.8628952,15.3402733 21.8267894,15.4297731 21.7184721,15.519273 C21.6101548,15.6087728 21.4837845,15.7161726 21.1768854,15.7161726 L20.6172458,15.7340726 L20.6172458,16.2352717 C20.6172458,16.3784715 20.6533516,16.3605715 20.6714045,16.3784715 C20.6894574,16.3963714 20.7255632,16.4142714 20.7436161,16.4142714 L20.924145,16.4142714 L21.4476787,16.3784715 L21.2310441,17.0944702 L20.6172458,17.0944702 C20.1839765,17.0944702 19.8770774,17.0944702 19.76876,17.0049704 C19.6604427,16.9333705 19.6604427,16.8617706 19.6604427,16.7185709 L19.6965485,14.7853742 L20.6714045,14.7853742 L20.6533516,15.1791736 L20.8880392,15.1791736 C20.9602507,15.1791736 21.0144094,15.1791736 21.0505152,15.1433736 C21.086621,15.1254737 21.1046738,15.0896737 21.1227267,15.0359738 L21.2129912,14.7316743 L21.9892654,14.7674743 L21.9892654,14.7674743 Z M8.14269931,5.71009005 C8.10659354,5.87118977 7.4927953,8.71728482 7.47474241,8.71728482 C7.34837218,9.29008382 7.24005485,9.7017831 6.91510284,9.97028263 C6.73457395,10.1313824 6.49988639,10.2029822 6.24714594,10.2029822 C5.83192948,10.2029822 5.59724192,10.0060826 5.56113614,9.61228326 L5.56113614,9.48698348 L5.68750637,8.71728482 C5.68750637,8.71728482 6.33741038,6.12178934 6.46378061,5.78168993 C6.46378061,5.76378996 6.46378061,5.74588999 6.4818335,5.74588999 C5.20007835,5.76378996 4.98344368,5.74588999 4.96539079,5.72799002 C4.96539079,5.74588999 4.92928501,5.90698971 4.92928501,5.90698971 L4.26132811,8.8425846 L4.20716944,9.09318416 L4.09885211,9.89868276 C4.09885211,10.1313824 4.15301077,10.328282 4.24327522,10.5072817 C4.55017434,11.0442808 5.41671303,11.1158806 5.90414104,11.1158806 C6.53599216,11.1158806 7.13173751,10.9726809 7.52890108,10.7399813 C8.23296376,10.328282 8.41349265,9.68388313 8.57596866,9.1289841 L8.64818022,8.8425846 C8.64818022,8.8425846 9.31613712,6.13968931 9.44250735,5.7995899 C9.44250735,5.78168993 9.44250735,5.76378996 9.46056024,5.76378996 C8.48570421,5.74588999 8.21491087,5.72799002 8.14269931,5.71009005 L8.14269931,5.71009005 Z M11.8615945,11.0800807 C11.4102723,11.0800807 11.2477963,11.0800807 10.7242625,11.0979807 L10.7062096,11.0621807 C10.7603683,10.8652811 10.796474,10.6683814 10.8506327,10.4714818 L10.9228443,10.2029822 C11.0131087,9.77338298 11.1214261,9.29008382 11.1214261,9.1289841 C11.1394789,9.03948426 11.1575318,8.80678466 10.9047914,8.80678466 C10.796474,8.80678466 10.6881567,8.86048457 10.5617865,8.91418447 C10.4895749,9.14688407 10.3632047,9.77338298 10.309046,10.0597825 C10.1826758,10.6683814 10.1646229,10.7399813 10.1104643,11.0442808 L10.0743585,11.0800807 C9.60498335,11.0800807 9.44250735,11.0800807 8.91897356,11.0979807 L8.90092067,11.0621807 C8.99118511,10.7041814 9.08144956,10.346182 9.17171401,9.97028263 C9.38834868,8.98578435 9.44250735,8.609885 9.5147189,8.10868588 L9.55082468,8.07288594 C10.0743585,8.00128606 10.2007287,7.9833861 10.7603683,7.87598628 L10.8145269,7.92968619 L10.7242625,8.23398566 C10.8145269,8.18028575 10.9047914,8.12658585 11.0131087,8.07288594 C11.2839021,7.94758616 11.5727483,7.91178622 11.7352243,7.91178622 C11.9879647,7.91178622 12.2587581,7.9833861 12.3670754,8.2697856 C12.4753928,8.52038516 12.4031812,8.8425846 12.2587581,9.45118354 L12.1865465,9.75548301 C12.0421234,10.4356818 12.0240705,10.5609816 11.9338061,11.0263808 L11.8615945,11.0800807 L11.8615945,11.0800807 Z M13.7029892,10.4535818 L13.089191,10.4535818 C12.926715,10.4535818 12.7461861,10.4714818 12.4934456,10.4714818 L12.4753928,10.4535818 L12.4573399,10.4356818 C12.5295514,10.1850823 12.5656572,10.0776824 12.601763,9.9881826 C12.6378688,9.89868276 12.6739745,9.80918292 12.7281332,9.54068338 C12.8003448,9.20058398 12.8545034,8.96788438 12.8906092,8.75308475 C12.926715,8.5561851 12.9447679,8.37718541 12.9808737,8.18028575 L12.9989265,8.16238578 L13.0169794,8.14448581 C13.2877728,8.10868588 13.4683017,8.07288594 13.6307777,8.05498597 C13.8113066,8.037086 13.9918355,8.00128606 14.2626288,7.94758616 L14.2806817,7.96548613 L14.2806817,7.9833861 L14.1182057,8.62778497 C14.064047,8.8425846 14.0098883,9.05738422 13.9737826,9.27218385 C13.8654652,9.71968307 13.8293595,9.89868276 13.8113066,10.0060826 C13.7932537,10.1134824 13.7752008,10.1850823 13.739095,10.4177819 L13.7210421,10.4356818 L13.7029892,10.4535818 Z M16.5733986,8.87838454 C16.5553457,8.98578435 16.4470284,9.43328357 16.3026053,9.61228326 C16.2123408,9.73758304 16.0859706,9.82708288 15.9596004,9.82708288 C15.9234946,9.82708288 15.7068599,9.82708288 15.6888071,9.50488345 C15.6888071,9.34378373 15.7249128,9.18268401 15.7610186,9.00368432 C15.8873888,8.48458522 16.0137591,8.037086 16.3748168,8.037086 C16.681716,8.01918603 16.6997689,8.34138547 16.5733986,8.87838454 L16.5733986,8.87838454 Z M17.7468364,8.91418447 C17.9093124,8.21608569 17.7829422,7.91178622 17.6204662,7.71488656 C17.3857786,7.41058709 16.9705622,7.32108725 16.5372929,7.32108725 C16.2845524,7.32108725 15.6707542,7.33898722 15.1833262,7.78648644 C14.8403213,8.10868588 14.6778452,8.53828513 14.5875808,8.94998441 C14.4973164,9.36168369 14.3709461,10.1313824 15.0750088,10.4177819 C15.2916435,10.5072817 15.5985426,10.5430816 15.8151773,10.5430816 C16.3387111,10.5430816 16.8622449,10.3998819 17.2594084,9.9881826 C17.5663075,9.63018323 17.7107307,9.1289841 17.7468364,8.91418447 L17.7468364,8.91418447 Z M29.4992674,7.35688719 C28.9396278,7.464287 28.7771518,7.48218697 28.2355651,7.55378684 L28.1994594,7.58958678 C28.1994594,7.62538672 28.1814065,7.67908663 28.1814065,7.71488656 C28.091142,7.57168681 27.9828247,7.464287 27.7842429,7.39268712 C27.5495553,7.30318728 26.9718629,7.42848706 26.4844349,7.85808631 C26.14143,8.18028575 25.978954,8.609885 25.8886895,9.02158429 C25.7984251,9.43328357 25.6720548,10.2029822 26.3761175,10.4714818 C26.5927522,10.5609816 26.8093869,10.5967815 27.0079687,10.5788816 C27.2246033,10.5609816 27.4231851,10.4535818 27.603714,10.310382 C27.5856611,10.3640819 27.5676082,10.4356818 27.5495553,10.4893817 L27.5856611,10.5251817 C28.091142,10.5072817 28.253618,10.5072817 28.7952047,10.5072817 L28.8493634,10.4714818 C28.9215749,10.0060826 29.0118394,9.55858335 29.2104212,8.66358491 C29.3006856,8.23398566 29.4090029,7.82228638 29.5173203,7.39268712 L29.4992674,7.35688719 L29.4992674,7.35688719 Z M27.7120313,9.66598316 C27.6217669,9.79128295 27.4051322,9.88078279 27.278762,9.88078279 C27.2426562,9.88078279 27.0260215,9.88078279 27.0079687,9.55858335 C27.0079687,9.39748363 27.0440744,9.23638391 27.0801802,9.05738422 C27.2065504,8.5561851 27.3329207,8.10868588 27.6939785,8.10868588 C27.928666,8.10868588 28.0369833,8.3234855 28.0189305,8.68148488 C28.0008776,8.77098472 27.9828247,8.86048457 27.9467189,8.96788438 C27.9106131,9.1289841 27.8745073,9.27218385 27.8384016,9.43328357 C27.8022958,9.50488345 27.76619,9.59438329 27.7120313,9.66598316 L27.7120313,9.66598316 Z M20.8338805,11.0800807 C20.3825583,11.0800807 20.2200823,11.0800807 19.6965485,11.0979807 L19.6784956,11.0621807 C19.7146014,10.8652811 19.76876,10.6683814 19.8229187,10.4714818 L19.8770774,10.2029822 C19.9673418,9.77338298 20.0756592,9.29008382 20.0756592,9.1289841 C20.0756592,9.03948426 20.1117649,8.80678466 19.8590245,8.80678466 C19.7507071,8.80678466 19.6423898,8.86048457 19.5160196,8.91418447 C19.443808,9.14688407 19.3174378,9.77338298 19.2632791,10.0597825 C19.1369089,10.6683814 19.118856,10.7399813 19.0646974,11.0442808 L19.0285916,11.0800807 C18.5592165,11.0800807 18.3967405,11.0800807 17.8732067,11.0979807 L17.8551538,11.0621807 C17.9454182,10.7041814 18.0356827,10.346182 18.1259471,9.97028263 C18.3425818,8.98578435 18.3967405,8.609885 18.468952,8.10868588 L18.5050578,8.07288594 C19.0285916,8.00128606 19.1549618,7.9833861 19.7146014,7.87598628 L19.7507071,7.92968619 L19.6604427,8.23398566 C19.7507071,8.18028575 19.8409716,8.12658585 19.9492889,8.07288594 C20.2200823,7.94758616 20.5089285,7.91178622 20.6714045,7.91178622 C20.924145,7.91178622 21.1949383,7.9833861 21.3032556,8.2697856 C21.411573,8.52038516 21.3393614,8.8425846 21.1949383,9.45118354 L21.1227267,9.75548301 C20.9783036,10.4356818 20.9602507,10.5609816 20.8699863,11.0263808 C20.9060921,11.0263808 20.8338805,11.0800807 20.8338805,11.0800807 L20.8338805,11.0800807 Z"/>
      <path fill="#FFFFFF" d="M24.7513575,5.71009005 L24.3722468,5.71009005 C23.3973908,5.72799002 23.0002272,5.71009005 22.8377512,5.69219009 C22.8196983,5.76378996 22.8016454,5.88908974 22.8016454,5.88908974 L22.4586405,7.50008694 L21.574049,11.0800807 C22.4225348,11.0621807 22.7835926,11.0621807 22.9280157,11.0800807 C22.9641214,10.918981 23.1627032,9.97028263 23.1627032,9.97028263 C23.1627032,9.97028263 23.3251792,9.27218385 23.3432321,9.23638391 C23.3432321,9.23638391 23.3973908,9.16478404 23.4515495,9.1289841 L23.523761,9.1289841 C24.2639295,9.1289841 25.0943624,9.1289841 25.7442664,8.64568494 C26.1775357,8.3234855 26.4844349,7.84018634 26.628858,7.24948737 C26.6649638,7.10628762 26.6830167,6.92728793 26.6830167,6.76618822 C26.6830167,6.53348862 26.628858,6.31868899 26.5024878,6.15758928 C26.1775357,5.72799002 25.5276317,5.71009005 24.7513575,5.71009005 M25.2387855,7.37478716 C25.1665739,7.73278653 24.9318864,8.037086 24.6249873,8.18028575 C24.3722468,8.30558553 24.0653477,8.30558553 23.7584486,8.30558553 L23.5598668,8.30558553 L23.5779197,8.21608569 C23.5779197,8.21608569 23.9570304,6.6050885 23.9570304,6.62298846 L23.9570304,6.46188875 L24.1014535,6.47978871 L24.8957806,6.55138859 C25.2026797,6.69458834 25.32905,6.99888781 25.2387855,7.37478716 M14.1904172,8.3234855 C14.4973164,8.10868588 14.5334221,7.84018634 14.2806817,7.67908663 C14.0279412,7.53588687 13.576619,7.57168681 13.2877728,7.78648644 C12.9808737,7.9833861 12.9447679,8.2697856 13.1975083,8.43088532 C13.4502488,8.57408507 13.901571,8.53828513 14.1904172,8.3234855 M33.2542684,7.33898722 L33.2181626,7.28528731 C32.658523,7.39268712 32.5682586,7.41058709 32.0447248,7.48218697 L32.008619,7.51798691 L32.008619,7.53588687 C31.6295083,8.41298535 31.6475612,8.21608569 31.3226092,8.91418447 L31.3226092,8.82468463 L31.2503976,7.33898722 L31.196239,7.28528731 C30.6185465,7.39268712 30.6004936,7.41058709 30.058907,7.48218697 L30.0228012,7.51798691 L30.0228012,7.57168681 C30.0950127,7.91178622 30.0769598,7.84018634 30.1491714,8.37718541 C30.1852772,8.64568494 30.221383,8.91418447 30.2574887,9.16478404 C30.3116474,9.59438329 30.3477532,9.82708288 30.4019119,10.4893817 C30.0408541,11.0800807 29.9505896,11.3127803 29.6075847,11.8318794 L29.3548443,12.2256787 C29.3187385,12.2614786 29.3006856,12.2972786 29.2645798,12.2972786 C29.228474,12.3151786 29.1743154,12.3151786 29.1021038,12.3151786 L28.9576807,12.3151786 L28.7590989,12.9953774 L29.4631616,13.0132773 C29.8783781,13.0132773 30.1311185,12.8163777 30.2755416,12.5657781 L30.708811,11.8139794 L30.7629696,11.7602795 C31.0157101,11.1695805 33.2542684,7.33898722 33.2542684,7.33898722"/>
    </g>
  </g>
</svg>
