<svg xmlns="http://www.w3.org/2000/svg" width="36" height="36" viewBox="0 0 36 36" xmlns:xlink="http://www.w3.org/1999/xlink">
  <defs>
    <rect id="a" width="36" height="36" y=".5"/>
  </defs>
  <g fill="none" fill-rule="evenodd" transform="translate(0 -.5)">
    <mask id="b" fill="white">
      <use xlink:href="#a"/>
    </mask>
    <path fill="#40AF36" fill-rule="nonzero" d="M15.1238641,17.1074714 C15.1238641,17.1074714 14.4129744,17.8656755 13.038744,16.9652934 C11.6643795,16.0650454 9.86358174,14.6909157 9.86358174,14.6909157 C9.86358174,14.6909157 9.34593999,14.2412779 8.91591876,14.440327 C8.43529693,14.6628825 8.82095462,15.4407702 8.99629625,15.8737759 C9.13857479,16.2251298 12.028677,22.1162933 12.028677,22.1162933 C12.028677,22.1162933 12.2368134,22.792611 12.8786597,22.792611 C13.4918692,22.792611 31.502194,12.0138792 33.1109174,11.0503889 C34.3647324,13.0541591 35.0775,15.3358134 35.0775,17.7588073 C35.0775,25.7120541 27.431646,32.1595224 17.9999497,32.1595224 C15.8224139,32.1595224 13.7422231,31.8119912 11.8270794,31.1854022 C10.939272,31.2939135 7.84314588,33.3536495 7.60047092,33.4345971 C7.34947989,33.5182607 6.8306645,33.8027508 6.54617447,33.5182607 C6.26165091,33.2337372 6.54617447,32.5810264 6.54617447,32.5810264 C6.54617447,32.5810264 7.03155792,31.1921423 7.26578268,30.1377117 C7.37841847,29.6308674 7.38572856,29.2664694 7.36389888,29.0213465 C3.43988804,26.3826713 0.9225,22.3199028 0.9225,17.7588073 C0.9225,9.80556057 8.56835403,3.35819289 17.9999162,3.35819289 C23.7557759,3.35819289 28.8428292,5.76200624 31.9363397,9.4412631 L15.1238641,17.1074714 Z" mask="url(#b)"/>
  </g>
</svg>
